<?xml version="1.0" encoding="UTF-8"?>
<!DOCTYPE svg PUBLIC "-//W3C//DTD SVG 1.1//EN" "http://www.w3.org/Graphics/SVG/1.1/DTD/svg11.dtd">
<svg xmlns="http://www.w3.org/2000/svg" version="1.1" width="512px" height="512px" style="shape-rendering:geometricPrecision; text-rendering:geometricPrecision; image-rendering:optimizeQuality; fill-rule:evenodd; clip-rule:evenodd" xmlns:xlink="http://www.w3.org/1999/xlink">
<g><path style="opacity:1" fill="#fc3c1d" d="M 207.5,31.5 C 207.5,63.5 207.5,95.5 207.5,127.5C 194.167,127.5 180.833,127.5 167.5,127.5C 167.5,92.8333 167.5,58.1667 167.5,23.5C 181.595,22.9856 194.928,25.6523 207.5,31.5 Z"/></g>
<g><path style="opacity:0.99" fill="#fe5a21" d="M 207.5,31.5 C 224.662,38.3238 238.995,48.9905 250.5,63.5C 242.759,72.7456 234.426,81.5789 225.5,90C 229.046,93.8818 232.879,97.3818 237,100.5C 244.713,93.2832 252.546,86.2832 260.5,79.5C 268.241,94.5325 271.907,110.533 271.5,127.5C 250.167,127.5 228.833,127.5 207.5,127.5C 207.5,95.5 207.5,63.5 207.5,31.5 Z"/></g>
<g><path style="opacity:0.995" fill="#0aa4a9" d="M 260.5,79.5 C 252.546,86.2832 244.713,93.2832 237,100.5C 232.879,97.3818 229.046,93.8818 225.5,90C 234.426,81.5789 242.759,72.7456 250.5,63.5C 255.997,58.1708 261.664,53.0042 267.5,48C 290.164,47.5 312.831,47.3334 335.5,47.5C 335.5,52.8333 335.5,58.1667 335.5,63.5C 315.497,63.3334 295.497,63.5 275.5,64C 270.297,69.0354 265.297,74.202 260.5,79.5 Z"/></g>
<g><path style="opacity:1" fill="#fe5a20" d="M 351.5,47.5 C 372.833,47.5 394.167,47.5 415.5,47.5C 415.5,52.8333 415.5,58.1667 415.5,63.5C 394.167,63.5 372.833,63.5 351.5,63.5C 351.5,58.1667 351.5,52.8333 351.5,47.5 Z"/></g>
<g><path style="opacity:1" fill="#ffb301" d="M 127.5,71.5 C 83.3107,92.8922 62.144,128.226 64,177.5C 71.7567,226.422 99.5901,257.089 147.5,269.5C 101.851,276.593 65.6841,261.26 39,223.5C 22.9864,196.917 18.9864,168.584 27,138.5C 43.5611,90.8027 77.0611,65.8027 127.5,63.5C 127.5,66.1667 127.5,68.8333 127.5,71.5 Z"/></g>
<g><path style="opacity:0.997" fill="#fed547" d="M 127.5,71.5 C 127.5,103.5 127.5,135.5 127.5,167.5C 162.167,167.5 196.833,167.5 231.5,167.5C 231.633,190.763 224.967,211.763 211.5,230.5C 201.421,221.925 191.754,212.758 182.5,203C 181.5,202.333 180.5,202.333 179.5,203C 176.667,205.833 173.833,208.667 171,211.5C 170.333,212.5 170.333,213.5 171,214.5C 180.702,224.035 190.202,233.702 199.5,243.5C 184.905,257.464 167.572,266.131 147.5,269.5C 99.5901,257.089 71.7567,226.422 64,177.5C 62.144,128.226 83.3107,92.8922 127.5,71.5 Z"/></g>
<g><path style="opacity:1" fill="#fe5a20" d="M 351.5,79.5 C 372.833,79.5 394.167,79.5 415.5,79.5C 415.5,84.8333 415.5,90.1667 415.5,95.5C 394.167,95.5 372.833,95.5 351.5,95.5C 351.5,90.1667 351.5,84.8333 351.5,79.5 Z"/></g>
<g><path style="opacity:1" fill="#fe5a20" d="M 431.5,79.5 C 452.833,79.5 474.167,79.5 495.5,79.5C 495.5,84.8333 495.5,90.1667 495.5,95.5C 474.167,95.5 452.833,95.5 431.5,95.5C 431.5,90.1667 431.5,84.8333 431.5,79.5 Z"/></g>
<g><path style="opacity:1" fill="#fe5a20" d="M 351.5,111.5 C 372.833,111.5 394.167,111.5 415.5,111.5C 415.5,116.833 415.5,122.167 415.5,127.5C 394.167,127.5 372.833,127.5 351.5,127.5C 351.5,122.167 351.5,116.833 351.5,111.5 Z"/></g>
<g><path style="opacity:1" fill="#fe5a20" d="M 431.5,111.5 C 452.833,111.5 474.167,111.5 495.5,111.5C 495.5,116.833 495.5,122.167 495.5,127.5C 474.167,127.5 452.833,127.5 431.5,127.5C 431.5,122.167 431.5,116.833 431.5,111.5 Z"/></g>
<g><path style="opacity:1" fill="#fed647" d="M 351.5,175.5 C 372.833,175.5 394.167,175.5 415.5,175.5C 415.5,180.833 415.5,186.167 415.5,191.5C 394.167,191.5 372.833,191.5 351.5,191.5C 351.5,186.167 351.5,180.833 351.5,175.5 Z"/></g>
<g><path style="opacity:1" fill="#fed647" d="M 431.5,175.5 C 452.833,175.5 474.167,175.5 495.5,175.5C 495.5,180.833 495.5,186.167 495.5,191.5C 474.167,191.5 452.833,191.5 431.5,191.5C 431.5,186.167 431.5,180.833 431.5,175.5 Z"/></g>
<g><path style="opacity:0.998" fill="#05a5aa" d="M 211.5,230.5 C 213.962,233.464 216.629,236.297 219.5,239C 258.165,239.5 296.832,239.667 335.5,239.5C 335.5,244.833 335.5,250.167 335.5,255.5C 294.165,255.667 252.832,255.5 211.5,255C 206.998,251.664 202.998,247.831 199.5,243.5C 190.202,233.702 180.702,224.035 171,214.5C 170.333,213.5 170.333,212.5 171,211.5C 173.833,208.667 176.667,205.833 179.5,203C 180.5,202.333 181.5,202.333 182.5,203C 191.754,212.758 201.421,221.925 211.5,230.5 Z"/></g>
<g><path style="opacity:1" fill="#fed647" d="M 351.5,207.5 C 372.833,207.5 394.167,207.5 415.5,207.5C 415.5,212.833 415.5,218.167 415.5,223.5C 394.167,223.5 372.833,223.5 351.5,223.5C 351.5,218.167 351.5,212.833 351.5,207.5 Z"/></g>
<g><path style="opacity:1" fill="#fed647" d="M 431.5,207.5 C 452.833,207.5 474.167,207.5 495.5,207.5C 495.5,212.833 495.5,218.167 495.5,223.5C 474.167,223.5 452.833,223.5 431.5,223.5C 431.5,218.167 431.5,212.833 431.5,207.5 Z"/></g>
<g><path style="opacity:1" fill="#fed647" d="M 351.5,239.5 C 372.833,239.5 394.167,239.5 415.5,239.5C 415.5,244.833 415.5,250.167 415.5,255.5C 394.167,255.5 372.833,255.5 351.5,255.5C 351.5,250.167 351.5,244.833 351.5,239.5 Z"/></g>
<g><path style="opacity:1" fill="#fed647" d="M 431.5,239.5 C 452.833,239.5 474.167,239.5 495.5,239.5C 495.5,244.833 495.5,250.167 495.5,255.5C 474.167,255.5 452.833,255.5 431.5,255.5C 431.5,250.167 431.5,244.833 431.5,239.5 Z"/></g>
<g><path style="opacity:1" fill="#00a5ab" d="M 15.5,287.5 C 20.8333,287.5 26.1667,287.5 31.5,287.5C 31.5,351.5 31.5,415.5 31.5,479.5C 106.167,479.5 180.833,479.5 255.5,479.5C 255.5,484.833 255.5,490.167 255.5,495.5C 176.084,495.994 96.7512,495.494 17.5,494C 16.8742,493.25 16.3742,492.416 16,491.5C 15.5,423.501 15.3333,355.501 15.5,287.5 Z"/></g>
<g><path style="opacity:1" fill="#07a4aa" d="M 311.5,479.5 C 324.833,479.5 338.167,479.5 351.5,479.5C 351.17,460.992 351.503,442.659 352.5,424.5C 363.146,434.479 373.479,444.812 383.5,455.5C 391.528,447.637 399.694,439.971 408,432.5C 416.332,439.665 424.165,447.332 431.5,455.5C 444.86,442.305 458.36,429.305 472,416.5C 477.684,421.019 482.851,426.019 487.5,431.5C 487.5,447.5 487.5,463.5 487.5,479.5C 490.167,479.5 492.833,479.5 495.5,479.5C 495.5,484.833 495.5,490.167 495.5,495.5C 421.418,495.994 347.418,495.494 273.5,494C 272.874,493.25 272.374,492.416 272,491.5C 271.5,423.501 271.333,355.501 271.5,287.5C 276.833,287.5 282.167,287.5 287.5,287.5C 287.5,351.5 287.5,415.5 287.5,479.5C 295.5,479.5 303.5,479.5 311.5,479.5 Z"/></g>
<g><path style="opacity:1" fill="#fb3c1c" d="M 199.5,295.5 C 199.5,348.833 199.5,402.167 199.5,455.5C 194.167,455.5 188.833,455.5 183.5,455.5C 183.5,402.167 183.5,348.833 183.5,295.5C 188.833,295.5 194.167,295.5 199.5,295.5 Z"/></g>
<g><path style="opacity:1" fill="#fe5a20" d="M 199.5,295.5 C 204.833,295.5 210.167,295.5 215.5,295.5C 215.5,348.833 215.5,402.167 215.5,455.5C 210.167,455.5 204.833,455.5 199.5,455.5C 199.5,402.167 199.5,348.833 199.5,295.5 Z"/></g>
<g><path style="opacity:1" fill="#fc3c1d" d="M 487.5,352.5 C 471.521,368.145 455.521,383.812 439.5,399.5C 432.479,393.146 425.812,386.479 419.5,379.5C 441.798,356.701 464.298,334.035 487,311.5C 487.5,325.163 487.667,338.829 487.5,352.5 Z"/></g>
<g><path style="opacity:1" fill="#007d93" d="M 135.5,327.5 C 135.5,370.167 135.5,412.833 135.5,455.5C 130.167,455.5 124.833,455.5 119.5,455.5C 119.5,412.833 119.5,370.167 119.5,327.5C 124.833,327.5 130.167,327.5 135.5,327.5 Z"/></g>
<g><path style="opacity:1" fill="#00a5aa" d="M 135.5,327.5 C 140.833,327.5 146.167,327.5 151.5,327.5C 151.5,370.167 151.5,412.833 151.5,455.5C 146.167,455.5 140.833,455.5 135.5,455.5C 135.5,412.833 135.5,370.167 135.5,327.5 Z"/></g>
<g><path style="opacity:0.997" fill="#fe5a21" d="M 487.5,352.5 C 487.5,378.833 487.5,405.167 487.5,431.5C 482.851,426.019 477.684,421.019 472,416.5C 458.36,429.305 444.86,442.305 431.5,455.5C 424.165,447.332 416.332,439.665 408,432.5C 399.694,439.971 391.528,447.637 383.5,455.5C 373.479,444.812 363.146,434.479 352.5,424.5C 351.833,423.833 351.167,423.167 350.5,422.5C 351.326,417.684 351.826,412.684 352,407.5C 361.369,398.298 370.536,388.965 379.5,379.5C 386.146,385.812 392.813,392.145 399.5,398.5C 406.187,392.145 412.854,385.812 419.5,379.5C 425.812,386.479 432.479,393.146 439.5,399.5C 455.521,383.812 471.521,368.145 487.5,352.5 Z"/></g>
<g><path style="opacity:1" fill="#fa3d1d" d="M 379.5,379.5 C 370.536,388.965 361.369,398.298 352,407.5C 351.826,412.684 351.326,417.684 350.5,422.5C 348.37,420.873 346.37,419.04 344.5,417C 343.833,416.333 343.167,416.333 342.5,417C 332.298,427.369 321.965,437.535 311.5,447.5C 311.333,433.829 311.5,420.163 312,406.5C 327.681,390.653 343.514,374.986 359.5,359.5C 366.521,365.854 373.188,372.521 379.5,379.5 Z"/></g>
<g><path style="opacity:1" fill="#feb300" d="M 71.5,375.5 C 71.5,402.167 71.5,428.833 71.5,455.5C 66.1667,455.5 60.8333,455.5 55.5,455.5C 55.5,428.833 55.5,402.167 55.5,375.5C 60.8333,375.5 66.1667,375.5 71.5,375.5 Z"/></g>
<g><path style="opacity:1" fill="#fed647" d="M 71.5,375.5 C 76.8333,375.5 82.1667,375.5 87.5,375.5C 87.5,402.167 87.5,428.833 87.5,455.5C 82.1667,455.5 76.8333,455.5 71.5,455.5C 71.5,428.833 71.5,402.167 71.5,375.5 Z"/></g>
<g><path style="opacity:1" fill="#007c92" d="M 350.5,422.5 C 351.167,423.167 351.833,423.833 352.5,424.5C 351.503,442.659 351.17,460.992 351.5,479.5C 338.167,479.5 324.833,479.5 311.5,479.5C 311.5,468.833 311.5,458.167 311.5,447.5C 321.965,437.535 332.298,427.369 342.5,417C 343.167,416.333 343.833,416.333 344.5,417C 346.37,419.04 348.37,420.873 350.5,422.5 Z"/></g>
</svg>
